<svg width="37" height="36" viewBox="0 0 37 36" fill="none" xmlns="http://www.w3.org/2000/svg">
<rect x="0.75" y="0.796631" width="36.25" height="34.4068" rx="3.07203" fill=""/>
<path d="M6.8941 13.0847H30.2416" stroke="black" stroke-width="2.45763" stroke-linecap="round"/>
<path d="M10.5805 10.0127C10.5805 8.99472 11.4058 8.16949 12.4237 8.16949H14.267C15.285 8.16949 16.1102 8.99472 16.1102 10.0127V16.1568C16.1102 17.1748 15.285 18 14.267 18H12.4237C11.4058 18 10.5805 17.1748 10.5805 16.1568V10.0127Z" fill="white" stroke="black" stroke-width="2.45763"/>
<path d="M30.2415 22.9153L6.89409 22.9153" stroke="black" stroke-width="2.45763" stroke-linecap="round"/>
<path d="M21.0254 19.8433C21.0254 18.8253 21.8507 18.0001 22.8687 18.0001H24.7119C25.7299 18.0001 26.5551 18.8253 26.5551 19.8433V25.9873C26.5551 27.0053 25.7299 27.8306 24.7119 27.8306H22.8687C21.8507 27.8306 21.0254 27.0053 21.0254 25.9873V19.8433Z" fill="white" stroke="black" stroke-width="2.45763"/>
</svg>
