<svg width="21" height="20" viewBox="0 0 21 20" fill="none" xmlns="http://www.w3.org/2000/svg">
<path d="M17.3824 1.66992C17.6988 1.67021 17.9601 1.90557 18.0012 2.21067L18.0068 2.29548L18.0034 6.04358C18.001 7.00717 17.2728 7.80021 16.336 7.9052L16.3357 9.78834C16.3357 10.7807 15.5647 11.593 14.589 11.659L14.4607 11.6633L14.2511 11.6633L14.2517 13.9897C14.2517 14.6688 13.885 15.2907 13.3003 15.6215L13.1717 15.6878L7.64281 18.2764C7.25429 18.4583 6.81201 18.2038 6.75824 17.7942L6.7528 17.7103L6.75274 11.6633L6.54191 11.6633C5.54952 11.6633 4.73721 10.8924 4.67124 9.91671L4.66691 9.78834L4.66728 7.90559C3.77426 7.80705 3.07018 7.08137 3.00515 6.17867L3.00024 6.04199V2.29492C3.00024 1.94974 3.28007 1.66992 3.62524 1.66992C3.94166 1.66992 4.20315 1.90505 4.24454 2.21011L4.25024 2.29492V6.04199C4.25024 6.35841 4.48537 6.6199 4.79044 6.66129L4.87524 6.66699L16.1263 6.66699C16.4432 6.66648 16.7054 6.43093 16.7475 6.12615L16.7534 6.04143L16.7568 2.29436C16.7571 1.94918 17.0372 1.66961 17.3824 1.66992ZM13.0011 11.6633H8.00274L8.0028 16.7276L12.6417 14.5557C12.8339 14.4657 12.9654 14.2856 12.9952 14.0794L13.0017 13.9897L13.0011 11.6633ZM15.0852 7.91659H5.91691V9.78834C5.91691 10.1048 6.15204 10.3662 6.4571 10.4076L6.54191 10.4133H14.4607C14.7771 10.4133 15.0386 10.1782 15.08 9.87315L15.0857 9.78834L15.0852 7.91659Z" fill="#212121"/>
</svg>
