<svg width="32" height="32" viewBox="0 0 32 32" fill="none" xmlns="http://www.w3.org/2000/svg">
<path d="M10.6667 8.00154L28 8.0025M10.6667 16.0016L28 16.0027M10.6667 24.0016L28 24.0026M4.66667 8.00065H4.68M4.66667 16.0007H4.68M4.66667 24.0007H4.68M5.33333 8.00065C5.33333 8.36884 5.03485 8.66732 4.66667 8.66732C4.29848 8.66732 4 8.36884 4 8.00065C4 7.63246 4.29848 7.33398 4.66667 7.33398C5.03485 7.33398 5.33333 7.63246 5.33333 8.00065ZM5.33333 16.0007C5.33333 16.3688 5.03485 16.6673 4.66667 16.6673C4.29848 16.6673 4 16.3688 4 16.0007C4 15.6325 4.29848 15.334 4.66667 15.334C5.03485 15.334 5.33333 15.6325 5.33333 16.0007ZM5.33333 24.0007C5.33333 24.3688 5.03485 24.6673 4.66667 24.6673C4.29848 24.6673 4 24.3688 4 24.0007C4 23.6325 4.29848 23.334 4.66667 23.334C5.03485 23.334 5.33333 23.6325 5.33333 24.0007Z" stroke="black" stroke-width="2.66667" stroke-linecap="round" stroke-linejoin="round"/>
</svg>
