<svg width="16" height="16" viewBox="0 0 16 16" fill="none" xmlns="http://www.w3.org/2000/svg">
<path d="M6.07501 14.006V13.581C6.08451 13.5465 6.10001 13.5155 6.10651 13.481C6.24401 12.587 6.98751 11.881 7.85951 11.8215C8.83451 11.753 9.65951 12.309 9.92801 13.215C9.96251 13.334 9.98751 13.459 10.0185 13.5805V14.0055C10.009 14.0335 9.99351 14.0585 9.99051 14.09C9.85601 14.915 9.26251 15.543 8.45001 15.721C8.38751 15.7335 8.32501 15.7525 8.26251 15.768H7.83751C7.80951 15.7585 7.78101 15.743 7.75301 15.74C6.94051 15.609 6.32201 15.0305 6.13451 14.2275C6.11601 14.1495 6.09401 14.078 6.07501 14.006ZM10.019 1.99399V2.41899C10.0095 2.45349 9.99401 2.48449 9.99101 2.51899C9.85051 3.41899 9.10351 4.12199 8.22201 4.17849C7.25001 4.24099 6.42801 3.67849 6.16251 2.76899C6.12801 2.65349 6.10301 2.53449 6.07501 2.41899V1.99399C6.08451 1.96599 6.10001 1.94099 6.10651 1.91299C6.25651 1.10049 6.72851 0.568985 7.51601 0.315985C7.61901 0.281485 7.72851 0.262985 7.83451 0.234985H8.25951C8.28751 0.244485 8.31601 0.259985 8.34401 0.262985C9.15951 0.397485 9.77551 0.972485 9.96301 1.77549C9.98201 1.85049 10 1.92249 10.019 1.99399ZM10.0185 7.78749V8.21249C10.009 8.24699 9.99351 8.27799 9.98701 8.31249C9.84651 9.20949 9.07151 9.93149 8.19651 9.96899C7.21201 10.0125 6.37801 9.41899 6.14351 8.50349C6.11851 8.40649 6.09651 8.30999 6.07501 8.21299V7.78799C6.08451 7.75349 6.10001 7.72249 6.10651 7.68799C6.24401 6.79099 7.02201 6.06899 7.89701 6.02849C8.88151 5.98149 9.71551 6.57849 9.95001 7.49399C9.97501 7.59399 9.99701 7.69049 10.0185 7.78749Z" fill="black"/>
</svg>
