<svg width="25" height="24" viewBox="0 0 25 24" fill="none" xmlns="http://www.w3.org/2000/svg">
<path d="M17.5 12C17.5 14.7614 15.2614 17 12.5 17C9.73858 17 7.5 14.7614 7.5 12C7.5 9.23858 9.73858 7 12.5 7C15.2614 7 17.5 9.23858 17.5 12Z" fill="#1C274C"/>
<path fill-rule="evenodd" clip-rule="evenodd" d="M12.5 1.25C12.9142 1.25 13.25 1.58579 13.25 2V4C13.25 4.41421 12.9142 4.75 12.5 4.75C12.0858 4.75 11.75 4.41421 11.75 4V2C11.75 1.58579 12.0858 1.25 12.5 1.25ZM1.75 12C1.75 11.5858 2.08579 11.25 2.5 11.25H4.5C4.91421 11.25 5.25 11.5858 5.25 12C5.25 12.4142 4.91421 12.75 4.5 12.75H2.5C2.08579 12.75 1.75 12.4142 1.75 12ZM19.75 12C19.75 11.5858 20.0858 11.25 20.5 11.25H22.5C22.9142 11.25 23.25 11.5858 23.25 12C23.25 12.4142 22.9142 12.75 22.5 12.75H20.5C20.0858 12.75 19.75 12.4142 19.75 12ZM12.5 19.25C12.9142 19.25 13.25 19.5858 13.25 20V22C13.25 22.4142 12.9142 22.75 12.5 22.75C12.0858 22.75 11.75 22.4142 11.75 22V20C11.75 19.5858 12.0858 19.25 12.5 19.25Z" fill="#1C274C"/>
<g opacity="0.5">
<path d="M4.16951 3.7156C4.44901 3.4099 4.92341 3.38867 5.22911 3.66817L7.45113 5.69975C7.75683 5.97925 7.77806 6.45365 7.49856 6.75935C7.21906 7.06505 6.74466 7.08629 6.43897 6.80679L4.21695 4.7752C3.91125 4.4957 3.89001 4.0213 4.16951 3.7156Z" fill="#1C274C"/>
<path d="M20.8319 3.7156C21.1114 4.0213 21.0902 4.4957 20.7845 4.7752L18.5624 6.80679C18.2567 7.08629 17.7823 7.06505 17.5028 6.75935C17.2233 6.45365 17.2446 5.97925 17.5503 5.69975L19.7723 3.66817C20.078 3.38867 20.5524 3.4099 20.8319 3.7156Z" fill="#1C274C"/>
<path d="M17.5261 17.025C17.819 16.7321 18.2938 16.7322 18.5867 17.0251L20.8087 19.2474C21.1016 19.5403 21.1016 20.0151 20.8087 20.308C20.5158 20.6009 20.0409 20.6009 19.748 20.3079L17.526 18.0857C17.2331 17.7927 17.2332 17.3179 17.5261 17.025Z" fill="#1C274C"/>
<path d="M7.47521 17.0251C7.7681 17.3179 7.7681 17.7928 7.47521 18.0857L5.25299 20.3079C4.96009 20.6008 4.48522 20.6008 4.19233 20.3079C3.89943 20.015 3.89943 19.5402 4.19233 19.2473L6.41455 17.025C6.70744 16.7322 7.18232 16.7322 7.47521 17.0251Z" fill="#1C274C"/>
</g>
</svg>
